<svg width="36" height="36" viewBox="0 0 36 36" fill="none" xmlns="http://www.w3.org/2000/svg">
    <path d="M30.7728 32.2453L17.8747 35.7182L4.97638 32.2453L2 0H33.7495L30.7728 32.2453Z" fill="#2062AF" />
    <path d="M17.8748 2.61182V32.9482L17.9039 32.9562L28.3418 30.1455L30.7511 2.61182H17.8748V2.61182Z" fill="#3C9CD7" />
    <path d="M17.8632 10.6744L8.63159 14.5191L8.93773 18.3257L17.8632 14.5095L27.3576 10.4502L27.7512 6.55621L17.8632 10.6744Z" fill="white" />
    <path d="M8.63159 14.5191L8.93773 18.3256L17.8632 14.5094V10.6744L8.63159 14.5191V14.5191Z" fill="url(#paint0_linear)" />
    <path d="M27.751 6.55634L17.863 10.6744V14.5095L27.3574 10.4502L27.751 6.55634Z" fill="url(#paint1_linear)" />
    <path d="M8.64575 14.5191L8.95199 18.3257L22.6469 18.3693L22.3406 23.4447L17.8342 24.7133L13.5022 23.6196L13.2397 20.4693H9.21448L9.73955 26.551L17.8779 28.9573L25.9722 26.5946L27.0223 14.5191H8.64575V14.5191Z" fill="url(#paint2_linear)" />
    <path opacity="0.05" d="M17.8632 14.5191H8.63159L8.93773 18.3257L17.8632 18.3542V14.5191ZM17.8632 24.7012L17.8194 24.7134L13.488 23.6196L13.2255 20.4694H9.20041L9.72539 26.551L17.8632 28.9574V24.7012Z" fill="black" />
    <path d="M7.80005 6.55634H27.7511L27.3574 10.4503H8.28128L7.80005 6.55634V6.55634Z" fill="url(#paint3_linear)" />
    <path opacity="0.05" d="M17.863 6.55634H7.80005L8.28128 10.4503H17.863V6.55634V6.55634Z" fill="black" />
    <defs>
        <linearGradient id="paint0_linear" x1="13.2474" y1="18.3257" x2="13.2474" y2="10.6745" gradientUnits="userSpaceOnUse">
            <stop offset="0.387" stop-color="#D1D3D4" stop-opacity="0" />
            <stop offset="1" stop-color="#D1D3D4" />
        </linearGradient>
        <linearGradient id="paint1_linear" x1="22.8069" y1="14.5096" x2="22.8069" y2="6.55643" gradientUnits="userSpaceOnUse">
            <stop offset="0.387" stop-color="#D1D3D4" stop-opacity="0" />
            <stop offset="1" stop-color="#D1D3D4" />
        </linearGradient>
        <linearGradient id="paint2_linear" x1="8.64575" y1="21.7383" x2="27.0222" y2="21.7383" gradientUnits="userSpaceOnUse">
            <stop stop-color="#E8E7E5" />
            <stop offset="1" stop-color="white" />
        </linearGradient>
        <linearGradient id="paint3_linear" x1="7.80005" y1="8.50331" x2="27.751" y2="8.50331" gradientUnits="userSpaceOnUse">
            <stop stop-color="#E8E7E5" />
            <stop offset="1" stop-color="white" />
        </linearGradient>
    </defs>
</svg>
