<svg width="36" height="36" viewBox="0 0 36 36" fill="none" xmlns="http://www.w3.org/2000/svg">
    <g clip-path="url(#clip0)">
        <path d="M12.0024 36C15.3144 36 18.0024 33.312 18.0024 30V24H12.0024C8.69044 24 6.00244 26.688 6.00244 30C6.00244 33.312 8.69044 36 12.0024 36Z" fill="#0ACF83" />
        <path d="M6.00244 18C6.00244 14.688 8.69044 12 12.0024 12H18.0024V24H12.0024C8.69044 24 6.00244 21.312 6.00244 18Z" fill="#A259FF" />
        <path d="M6.00269 6C6.00269 2.688 8.69069 0 12.0027 0H18.0027V12H12.0027C8.69069 12 6.00269 9.312 6.00269 6Z" fill="#F24E1E" />
        <path d="M18.0022 0H24.0022C27.3142 0 30.0022 2.688 30.0022 6C30.0022 9.312 27.3142 12 24.0022 12H18.0022V0Z" fill="#FF7262" />
        <path d="M30.0022 18C30.0022 21.312 27.3142 24 24.0022 24C20.6902 24 18.0022 21.312 18.0022 18C18.0022 14.688 20.6902 12 24.0022 12C27.3142 12 30.0022 14.688 30.0022 18Z" fill="#1ABCFE" />
    </g>
    <defs>
        <clipPath id="clip0">
            <rect width="24.0048" height="36" fill="white" transform="translate(6)" />
        </clipPath>
    </defs>
</svg>
