<svg width="36" height="36" viewBox="0 0 36 36" fill="none" xmlns="http://www.w3.org/2000/svg">
    <g clip-path="url(#clip0)">
        <path d="M34 0L31.0847 32.6585L17.9804 36.2914L4.91225 32.6636L2 0H34Z" fill="#E44D26" />
        <path d="M18 33.5146L28.5889 30.579L31.0801 2.67072H18V33.5146Z" fill="#F16529" />
        <path d="M12.3329 10.6829H18.0001V6.67688H7.95483L8.05067 7.75162L9.03534 18.7912H18.0001V14.7852H12.6991L12.3329 10.6829V10.6829ZM13.2358 20.7943H9.21434L9.77554 27.0845L17.9817 29.3624L18.0001 29.3574V25.1894L17.9826 25.194L13.5211 23.9893L13.2358 20.7943V20.7943Z" fill="#EBEBEB" />
        <path d="M17.9862 18.7912H22.9192L22.4541 23.9868L17.9861 25.1928V29.3605L26.1988 27.0845L26.259 26.4076L27.2005 15.8609L27.2982 14.7852H17.9862V18.7912ZM17.9862 10.6731V10.6829H27.6627L27.743 9.78255L27.9256 7.75162L28.0213 6.67688H17.9862V10.6733V10.6731Z" fill="white" />
    </g>
    <defs>
        <clipPath id="clip0">
            <rect width="36" height="36" fill="white" />
        </clipPath>
    </defs>
</svg>
