<svg width="36" height="36" viewBox="0 0 36 36" fill="none" xmlns="http://www.w3.org/2000/svg">
    <path d="M0 3.89996H28.5V32.1H0V3.89996Z" fill="#EFD81D" />
    <path d="M28.8 32.25H0V3.75H28.8V32.25ZM0.5409 31.7115H28.2588V4.2885H0.5409C0.5409 4.2885 0.5409 31.7115 0.5409 31.7115Z" fill="#EEEEEE" />
    <path d="M19.2881 25.9721C19.859 26.9045 20.6018 27.5897 21.9158 27.5897C23.0195 27.5897 23.7245 27.038 23.7245 26.276C23.7245 25.3628 23.0003 25.0391 21.7853 24.5078L21.1196 24.2222C19.1975 23.4035 17.9207 22.3775 17.9207 20.2088C17.9207 18.2111 19.4426 16.6904 21.8216 16.6904C23.5151 16.6904 24.7328 17.2799 25.61 18.8231L23.5358 20.1548C23.0792 19.3358 22.5866 19.0133 21.8216 19.0133C21.0413 19.0133 20.5469 19.5083 20.5469 20.1548C20.5469 20.9537 21.0419 21.2774 22.1846 21.7724L22.8506 22.0577C25.1138 23.0282 26.3915 24.0176 26.3915 26.2421C26.3915 28.64 24.5078 29.954 21.9776 29.954C19.5038 29.954 17.9057 28.7753 17.1236 27.2303C17.1236 27.2297 19.2881 25.9721 19.2881 25.9721V25.9721ZM28.8968 25.9721C29.4677 26.9045 30.2105 27.5897 31.5245 27.5897C32.6282 27.5897 33.3332 27.038 33.3332 26.276C33.3332 25.3628 32.609 25.0391 31.394 24.5078L30.7283 24.2222C28.8062 23.4035 27.5294 22.3775 27.5294 20.2088C27.5294 18.2111 29.0513 16.6904 31.4303 16.6904C33.1238 16.6904 34.3415 17.2799 35.2187 18.8231L33.1445 20.1548C32.6879 19.3358 32.1953 19.0133 31.4303 19.0133C30.65 19.0133 30.1556 19.5083 30.1556 20.1548C30.1556 20.9537 30.6506 21.2774 31.7933 21.7724L32.4593 22.0577C34.7222 23.0279 35.9999 24.0173 35.9999 26.2418C35.9999 28.6397 34.1162 29.9537 31.586 29.9537C29.1122 29.9537 27.5141 28.775 26.732 27.23L28.8968 25.9721V25.9721ZM9.8789 26.2031C10.2974 26.9456 10.6781 27.5732 11.5931 27.5732C12.4682 27.5732 13.0202 27.2309 13.0202 25.8995V16.8422H15.6836V25.9352C15.6836 28.6931 14.0666 29.9486 11.7062 29.9486C9.5735 29.9486 8.33841 28.8449 7.71021 27.5156L9.8789 26.2031C9.8789 26.2028 9.8789 26.2031 9.8789 26.2031V26.2031Z" fill="black" />
</svg>
