<svg width="36" height="36" viewBox="0 0 36 36" fill="none" xmlns="http://www.w3.org/2000/svg">
    <path d="M0 2.71245C0 1.29474 1.19166 0.143982 2.66062 0.143982H33.3394C34.8089 0.143982 36 1.29474 36 2.71245V33.4319C36 34.8501 34.8089 36 33.3394 36H2.66062C1.1918 36 0 34.8502 0 33.4324V2.71203V2.71245Z" fill="#006699" />
    <path d="M10.9404 30.1507V14.0082H5.55337V30.1507H10.941H10.9404ZM8.24803 11.8046C10.1262 11.8046 11.2955 10.5651 11.2955 9.01597C11.2604 7.43158 10.1262 6.22662 8.28375 6.22662C6.44001 6.22662 5.23584 7.43158 5.23584 9.01583C5.23584 10.5649 6.40471 11.8045 8.21273 11.8045H8.2476L8.24803 11.8046ZM13.9222 30.1507H19.3089V21.137C19.3089 20.6552 19.344 20.1721 19.4864 19.828C19.8756 18.8636 20.762 17.8654 22.2505 17.8654C24.1993 17.8654 24.9793 19.3456 24.9793 21.5158V30.1507H30.3658V20.8951C30.3658 15.937 27.7086 13.6298 24.1644 13.6298C21.2586 13.6298 19.9825 15.2473 19.2734 16.3491H19.3093V14.0088H13.9225C13.9928 15.5231 13.9221 30.1513 13.9221 30.1513L13.9222 30.1507Z" fill="white" />
</svg>
