<svg width="36" height="36" viewBox="0 0 36 36" fill="none" xmlns="http://www.w3.org/2000/svg">
    <g clip-path="url(#clip0)">
        <path d="M30.9795 20.5111C29.7209 20.5182 28.6311 20.8205 27.717 21.2706C27.3795 20.6026 27.042 20.0189 26.9858 19.5831C26.9226 19.0768 26.8452 18.7674 26.9226 18.1627C26.9998 17.558 27.3514 16.7002 27.3514 16.6299C27.3443 16.5666 27.274 16.2572 26.5498 16.2502C25.8257 16.2431 25.1998 16.3908 25.1295 16.5806C25.0592 16.7705 24.9186 17.2064 24.8272 17.6564C24.7006 18.3174 23.3787 20.6588 22.6264 21.8892C22.3803 21.4111 22.1694 20.9892 22.1271 20.6517C22.0639 20.1455 21.9865 19.836 22.0639 19.2314C22.1412 18.6267 22.4928 17.7689 22.4928 17.6986C22.4858 17.6353 22.4155 17.326 21.6913 17.3189C20.967 17.3119 20.3413 17.4595 20.271 17.6494C20.2007 17.8392 20.1233 18.2892 19.9687 18.7252C19.8209 19.1611 18.0631 23.0705 17.6061 24.09C17.3741 24.6103 17.1702 25.0252 17.0225 25.3064C16.8748 25.5877 17.0155 25.3275 17.0014 25.3556C16.8748 25.5947 16.8045 25.7283 16.8045 25.7283V25.7354C16.7061 25.9112 16.6006 26.0799 16.5513 26.0799C16.5162 26.0799 16.4459 25.6088 16.5654 24.962C16.8255 23.6049 17.4584 21.4885 17.4514 21.4112C17.4514 21.376 17.5709 21.0033 17.0435 20.8135C16.5302 20.6237 16.3475 20.9401 16.3052 20.9401C16.263 20.9401 16.2279 21.0526 16.2279 21.0526C16.2279 21.0526 16.7974 18.6691 15.138 18.6691C14.0974 18.6691 12.663 19.8011 11.9529 20.8347C11.5029 21.0808 10.5466 21.601 9.53414 22.1566C9.14742 22.3675 8.74664 22.5925 8.36695 22.7964L8.28968 22.7119C6.27874 20.5674 2.55921 19.0486 2.71389 16.1658C2.77014 15.1181 3.13577 12.3549 9.85771 9.00799C15.3632 6.2658 19.7718 7.01814 20.5381 8.69158C21.628 11.0822 18.1826 15.526 12.4593 16.1658C10.2796 16.4119 9.13343 15.5681 8.84521 15.2517C8.54287 14.9213 8.50068 14.9072 8.38818 14.9705C8.20537 15.0689 8.31787 15.3642 8.38818 15.54C8.55693 15.983 9.26006 16.7705 10.4554 17.1642C11.503 17.5088 14.0624 17.6986 17.1562 16.5033C20.6226 15.1603 23.3296 11.4338 22.5351 8.31892C21.7265 5.14783 16.4671 4.1072 11.496 5.87205C8.53577 6.92673 5.32952 8.57205 3.02327 10.7306C0.281082 13.29 -0.154856 15.526 0.0279569 16.4541C0.667871 19.7658 5.23108 21.9244 7.05921 23.5205C6.9678 23.5696 6.88343 23.6189 6.80608 23.6611C5.89202 24.111 2.41155 25.9322 1.53968 27.8587C0.555301 30.0384 1.69436 31.6064 2.45374 31.8174C4.80218 32.4713 7.20686 31.2971 8.50764 29.3635C9.80132 27.4299 9.64671 24.9197 9.04905 23.7736L9.02789 23.7314L9.74507 23.3095C10.2092 23.0353 10.6662 22.7822 11.0669 22.5642C10.842 23.1759 10.6802 23.9001 10.5959 24.9548C10.4975 26.1924 11.0037 27.7954 11.6717 28.4282C11.967 28.7024 12.3186 28.7095 12.5366 28.7095C13.31 28.7095 13.6616 28.0696 14.0483 27.3032C14.5264 26.3681 14.9483 25.2853 14.9483 25.2853C14.9483 25.2853 14.4209 28.2173 15.8623 28.2173C16.3897 28.2173 16.917 27.5353 17.1561 27.1837V27.1907C17.1561 27.1907 17.1701 27.1696 17.1983 27.1204C17.2278 27.0768 17.2559 27.0323 17.2826 26.9869V26.9728C17.4936 26.6072 17.9647 25.7705 18.6678 24.3853C19.5748 22.5994 20.4467 20.3635 20.4467 20.3635C20.4467 20.3635 20.5311 20.9119 20.7912 21.8119C20.9459 22.3463 21.2834 22.9299 21.5435 23.4994C21.3326 23.7947 21.206 23.9635 21.206 23.9635L21.213 23.9706C21.0444 24.1956 20.8544 24.4347 20.6576 24.6737C19.9405 25.5315 19.0826 26.5089 18.9701 26.7902C18.8365 27.1206 18.8647 27.3667 19.1248 27.5636C19.3147 27.7042 19.6522 27.7323 20.0108 27.7042C20.6576 27.662 21.1076 27.5003 21.3326 27.4018C21.6842 27.2752 22.085 27.0854 22.4717 26.8042C23.1748 26.2839 23.6037 25.5456 23.5616 24.5613C23.5405 24.0198 23.3647 23.4855 23.1467 22.9792C23.21 22.8878 23.2733 22.7963 23.3365 22.698C24.4475 21.0737 25.3053 19.2878 25.3053 19.2878C25.3053 19.2878 25.3897 19.8363 25.6498 20.7363C25.7834 21.1933 26.0506 21.6926 26.2897 22.1848C25.249 23.0355 24.5951 24.0199 24.3701 24.6668C23.9553 25.8621 24.2787 26.4035 24.8905 26.5301C25.1646 26.5863 25.5584 26.4598 25.8537 26.3332C26.2193 26.2137 26.6623 26.0097 27.0701 25.7074C27.7733 25.1871 28.4483 24.4629 28.4131 23.4855C28.392 23.0355 28.2725 22.5926 28.1108 22.1707C28.9967 21.8051 30.1427 21.5941 31.5983 21.7699C34.7272 22.1355 35.3459 24.0902 35.2265 24.9059C35.1069 25.7215 34.453 26.1715 34.235 26.3121C34.017 26.4457 33.9467 26.495 33.9678 26.5934C33.9959 26.7411 34.0944 26.734 34.2842 26.7059C34.5444 26.6637 35.9295 26.038 35.9858 24.5333C36.0701 22.5995 34.235 20.4901 30.9795 20.5111V20.5111ZM6.84827 28.6463C5.81468 29.7783 4.35921 30.2072 3.74046 29.8416C3.07249 29.4549 3.33257 27.7885 4.6053 26.5861C5.37874 25.8549 6.38421 25.1799 7.04514 24.765C7.1928 24.6736 7.4178 24.5401 7.68499 24.3783C7.72718 24.3502 7.7553 24.3361 7.7553 24.3361C7.80452 24.308 7.86077 24.2728 7.91702 24.2377C8.38811 25.9533 7.93811 27.458 6.84827 28.6463V28.6463ZM14.4069 23.5064C14.0483 24.3853 13.2889 26.6424 12.8319 26.5158C12.438 26.4103 12.1991 24.7017 12.7544 23.0142C13.0357 22.1634 13.6334 21.151 13.9849 20.7571C14.5545 20.1243 15.1732 19.9134 15.328 20.1735C15.5108 20.5111 14.6319 22.958 14.4069 23.5064ZM20.6436 26.4877C20.4889 26.5651 20.3483 26.6213 20.285 26.5792C20.2358 26.551 20.3482 26.4456 20.3482 26.4456C20.3482 26.4456 21.1287 25.6088 21.438 25.2221C21.6138 24.9972 21.8248 24.737 22.0498 24.4417V24.526C22.0498 25.5385 21.0795 26.2135 20.6436 26.4877ZM25.4529 25.3908C25.3404 25.3064 25.3545 25.0463 25.7341 24.2306C25.8819 23.9072 26.2193 23.3658 26.8029 22.8525C26.8732 23.0635 26.9155 23.2673 26.9084 23.4572C26.9014 24.7228 26.0014 25.1939 25.4529 25.3908Z" fill="#CF649A" />
    </g>
    <defs>
        <clipPath id="clip0">
            <rect width="36" height="27" fill="white" transform="translate(0 5)" />
        </clipPath>
    </defs>
</svg>
