<svg width="36" height="36" viewBox="0 0 36 36" fill="none" xmlns="http://www.w3.org/2000/svg">
    <path d="M7 33C5.34315 33 4 31.6569 4 30V7C4 5.34315 5.34315 4 7 4H30C31.6569 4 33 5.34315 33 7V30C33 31.6569 31.6569 33 30 33H7Z" fill="#007ACC" />
    <path d="M10.3584 18.5507V19.7325H14.1284V30.4625H16.8036V19.7325H20.5736V18.5725C20.5736 17.92 20.5736 17.3907 20.5446 17.3762C20.5446 17.3545 18.2464 17.3472 15.4551 17.3472L10.3801 17.369V18.558L10.3584 18.5507V18.5507ZM27.3016 17.34C28.0411 17.514 28.6066 17.8475 29.1141 18.3767C29.3824 18.6667 29.7811 19.1742 29.8101 19.3047C29.8101 19.3482 28.5559 20.1965 27.7946 20.6677C27.7656 20.6895 27.6496 20.5662 27.5336 20.3777C27.1566 19.8412 26.7724 19.6092 26.1706 19.5657C25.3006 19.5077 24.7206 19.9645 24.7206 20.7257C24.7206 20.9577 24.7641 21.0882 24.8511 21.2767C25.0469 21.6755 25.4094 21.9147 26.5331 22.4077C28.6066 23.2995 29.5056 23.8867 30.0494 24.7277C30.6656 25.6702 30.8034 27.1492 30.3901 28.2585C29.9261 29.4692 28.7951 30.2885 27.1784 30.5567C26.6709 30.6437 25.5109 30.6292 24.9671 30.535C23.8071 30.3175 22.6979 29.7375 22.0164 28.9907C21.7481 28.7007 21.2334 27.925 21.2624 27.8742L21.5379 27.7002L22.6254 27.0695L23.4446 26.591L23.6331 26.8447C23.8724 27.2217 24.4089 27.7292 24.7206 27.9032C25.6631 28.389 26.9246 28.3237 27.5481 27.7582C27.8164 27.5117 27.9324 27.2507 27.9324 26.8882C27.9324 26.5547 27.8816 26.4025 27.7149 26.1487C27.4829 25.8297 27.0189 25.5687 25.7139 24.9887C24.2131 24.3507 23.5751 23.9447 22.9806 23.3212C22.6399 22.9442 22.3281 22.357 22.1831 21.8712C22.0744 21.4507 22.0381 20.4212 22.1396 20.008C22.4514 18.558 23.5461 17.543 25.1121 17.253C25.6196 17.1515 26.8159 17.195 27.3161 17.3255L27.3016 17.34V17.34Z" fill="white" />
</svg>
