<svg width="35" height="23" viewBox="0 0 35 23" fill="none" xmlns="http://www.w3.org/2000/svg">
    <g id="btn-circle">
        <path d="M22.5 11.5C22.5 17.5751 17.5751 22.5 11.5 22.5C5.42487 22.5 0.5 17.5751 0.5 11.5C0.5 5.42487 5.42487 0.5 11.5 0.5C17.5751 0.5 22.5 5.42487 22.5 11.5Z" stroke="black" stroke-opacity="0.5" />
    </g>
    <g id="btn-arrow">
        <path d="M34.3536 12.3536C34.5488 12.1583 34.5488 11.8417 34.3536 11.6464L31.1716 8.46447C30.9763 8.2692 30.6597 8.2692 30.4645 8.46447C30.2692 8.65973 30.2692 8.97631 30.4645 9.17157L33.2929 12L30.4645 14.8284C30.2692 15.0237 30.2692 15.3403 30.4645 15.5355C30.6597 15.7308 30.9763 15.7308 31.1716 15.5355L34.3536 12.3536ZM11 12.5H34V11.5H11V12.5Z" fill="#49C5B6" />
    </g>
</svg>
